<svg xmlns="http://www.w3.org/2000/svg" xmlns:xlink="http://www.w3.org/1999/xlink" width="500" zoomAndPan="magnify" viewBox="0 0 375 374.999991" height="500" preserveAspectRatio="xMidYMid meet" version="1.0"><defs><clipPath id="33ff836ad6"><path d="M 90.804688 80.855469 L 284.304688 80.855469 L 284.304688 293.855469 L 90.804688 293.855469 Z M 90.804688 80.855469 " clip-rule="nonzero"/></clipPath></defs><g clip-path="url(#33ff836ad6)"><path fill="#ff2996" d="M 150.746094 177.28125 C 141.691406 176.707031 134.226562 184.171875 134.800781 193.230469 C 135.273438 200.695312 141.332031 206.753906 148.796875 207.230469 C 157.855469 207.800781 165.320312 200.335938 164.746094 191.277344 C 164.277344 183.8125 158.214844 177.75 150.746094 177.28125 Z M 284.183594 284.992188 L 282.886719 294.0625 C 278.679688 294.0625 275.113281 293.738281 270.902344 293.414062 C 247.257812 291.796875 234.625 285.640625 220.371094 265.558594 C 208.386719 249.039062 196.726562 228.632812 186.363281 212.113281 C 183.363281 207.3125 180.847656 204.320312 177.371094 202.492188 C 175.277344 201.390625 174.691406 198.683594 176.175781 196.84375 C 176.878906 195.972656 177.554688 195.089844 178.203125 194.195312 C 181.28125 189.953125 185.53125 186.707031 190.359375 184.660156 C 193.574219 183.296875 196.417969 181.5625 198.996094 179.398438 C 211.625 170.003906 216.808594 157.046875 216.808594 139.554688 C 216.808594 104.898438 193.8125 92.261719 168.871094 92.261719 C 159.476562 92.261719 97.894531 92.09375 90.804688 91.886719 L 90.804688 80.925781 L 173.40625 80.925781 C 197.050781 80.925781 212.921875 83.839844 225.230469 91.9375 C 238.511719 100.359375 247.257812 114.9375 247.257812 134.695312 C 247.257812 162.550781 229.441406 180.042969 205.472656 190.410156 C 211.300781 200.453125 225.230469 222.152344 234.949219 236.730469 C 246.933594 253.898438 253.085938 261.996094 260.539062 270.09375 C 269.285156 279.488281 276.734375 283.050781 284.183594 284.992188 " fill-opacity="1" fill-rule="nonzero"/></g></svg>