<svg xmlns="http://www.w3.org/2000/svg" xmlns:xlink="http://www.w3.org/1999/xlink" width="500" zoomAndPan="magnify" viewBox="0 0 375 374.999991" height="500" preserveAspectRatio="xMidYMid meet" version="1.0"><defs><g/><clipPath id="6346c182c0"><path d="M 45.992188 124 L 154.742188 124 L 154.742188 243.226562 L 45.992188 243.226562 Z M 45.992188 124 " clip-rule="nonzero"/></clipPath></defs><g clip-path="url(#6346c182c0)"><path fill="#ff2996" d="M 79.585938 178.011719 C 74.507812 177.691406 70.324219 181.875 70.644531 186.949219 C 70.910156 191.136719 74.308594 194.53125 78.492188 194.796875 C 83.566406 195.117188 87.75 190.933594 87.429688 185.855469 C 87.164062 181.671875 83.769531 178.277344 79.585938 178.011719 Z M 154.363281 238.375 L 153.636719 243.460938 C 151.277344 243.460938 149.28125 243.277344 146.921875 243.097656 C 133.667969 242.1875 126.589844 238.738281 118.601562 227.484375 C 111.886719 218.226562 105.351562 206.792969 99.542969 197.535156 C 97.863281 194.84375 96.453125 193.167969 94.503906 192.140625 C 93.332031 191.523438 93.003906 190.007812 93.835938 188.976562 C 94.226562 188.488281 94.605469 187.992188 94.96875 187.492188 C 96.695312 185.113281 99.078125 183.296875 101.785156 182.148438 C 103.585938 181.386719 105.179688 180.414062 106.621094 179.199219 C 113.703125 173.933594 116.605469 166.671875 116.605469 156.871094 C 116.605469 137.449219 103.71875 130.367188 89.738281 130.367188 C 84.476562 130.367188 49.964844 130.273438 45.992188 130.15625 L 45.992188 124.015625 L 92.28125 124.015625 C 105.53125 124.015625 114.429688 125.648438 121.324219 130.1875 C 128.769531 134.90625 133.667969 143.074219 133.667969 154.148438 C 133.667969 169.757812 123.6875 179.5625 110.253906 185.371094 C 113.519531 191 121.324219 203.160156 126.773438 211.328125 C 133.488281 220.949219 136.9375 225.488281 141.113281 230.027344 C 146.015625 235.292969 150.1875 237.289062 154.363281 238.375 " fill-opacity="1" fill-rule="nonzero"/></g><g fill="#ff2996" fill-opacity="1"><g transform="translate(133.419187, 208.345371)"><g><path d="M 15.109375 -25.421875 C 18.910156 -25.421875 22.003906 -24.785156 24.390625 -23.515625 C 26.773438 -22.242188 27.96875 -20.179688 27.96875 -17.328125 L 27.96875 -7.625 C 27.96875 -7.09375 28.09375 -6.65625 28.34375 -6.3125 C 28.59375 -5.96875 28.96875 -5.796875 29.46875 -5.796875 L 31.171875 -5.796875 L 31.171875 -0.375 C 31.078125 -0.3125 30.832031 -0.207031 30.4375 -0.0625 C 30.039062 0.0703125 29.484375 0.207031 28.765625 0.34375 C 28.046875 0.488281 27.210938 0.5625 26.265625 0.5625 C 24.453125 0.5625 22.957031 0.289062 21.78125 -0.25 C 20.601562 -0.800781 19.789062 -1.566406 19.34375 -2.546875 C 18.15625 -1.597656 16.820312 -0.84375 15.34375 -0.28125 C 13.875 0.28125 12.148438 0.5625 10.171875 0.5625 C 4.328125 0.5625 1.40625 -1.757812 1.40625 -6.40625 C 1.40625 -8.820312 2.054688 -10.664062 3.359375 -11.9375 C 4.660156 -13.207031 6.535156 -14.078125 8.984375 -14.546875 C 11.429688 -15.015625 14.632812 -15.25 18.59375 -15.25 L 18.59375 -16.484375 C 18.59375 -17.453125 18.253906 -18.1875 17.578125 -18.6875 C 16.910156 -19.1875 16.039062 -19.4375 14.96875 -19.4375 C 14 -19.4375 13.160156 -19.265625 12.453125 -18.921875 C 11.742188 -18.578125 11.390625 -18.03125 11.390625 -17.28125 L 11.390625 -17.09375 L 2.171875 -17.09375 C 2.140625 -17.25 2.125 -17.46875 2.125 -17.75 C 2.125 -20.101562 3.242188 -21.96875 5.484375 -23.34375 C 7.722656 -24.726562 10.929688 -25.421875 15.109375 -25.421875 Z M 18.59375 -10.828125 C 15.925781 -10.828125 13.957031 -10.535156 12.6875 -9.953125 C 11.414062 -9.378906 10.78125 -8.601562 10.78125 -7.625 C 10.78125 -6.050781 11.847656 -5.265625 13.984375 -5.265625 C 15.203125 -5.265625 16.273438 -5.59375 17.203125 -6.25 C 18.128906 -6.914062 18.59375 -7.734375 18.59375 -8.703125 Z M 18.59375 -10.828125 "/></g></g></g><g fill="#ff2996" fill-opacity="1"><g transform="translate(164.817676, 208.345371)"><g><path d="M 20.90625 0 L 20.109375 -3.53125 C 18.285156 -0.800781 15.644531 0.5625 12.1875 0.5625 C 8.832031 0.5625 6.242188 -0.535156 4.421875 -2.734375 C 2.597656 -4.929688 1.6875 -8.175781 1.6875 -12.46875 C 1.6875 -16.738281 2.597656 -19.960938 4.421875 -22.140625 C 6.242188 -24.328125 8.832031 -25.421875 12.1875 -25.421875 C 15.050781 -25.421875 17.375 -24.460938 19.15625 -22.546875 L 19.15625 -34.125 L 28.53125 -34.125 L 28.53125 0 Z M 15.109375 -18.5 C 12.410156 -18.5 11.0625 -16.882812 11.0625 -13.65625 L 11.0625 -11.15625 C 11.0625 -7.957031 12.410156 -6.359375 15.109375 -6.359375 C 16.492188 -6.359375 17.53125 -6.84375 18.21875 -7.8125 C 18.90625 -8.789062 19.25 -10.0625 19.25 -11.625 L 19.25 -13.1875 C 19.25 -14.75 18.90625 -16.023438 18.21875 -17.015625 C 17.53125 -18.003906 16.492188 -18.5 15.109375 -18.5 Z M 15.109375 -18.5 "/></g></g></g><g fill="#ff2996" fill-opacity="1"><g transform="translate(196.216166, 208.345371)"><g><path d="M 3.15625 -27.78125 L 3.15625 -34.125 L 12.515625 -34.125 L 12.515625 -27.78125 Z M 3.15625 0 L 3.15625 -24.859375 L 12.515625 -24.859375 L 12.515625 0 Z M 3.15625 0 "/></g></g></g><g fill="#ff2996" fill-opacity="1"><g transform="translate(211.89187, 208.345371)"><g><path d="M 15.671875 -25.421875 C 20.035156 -25.421875 23.460938 -24.3125 25.953125 -22.09375 C 28.453125 -19.882812 29.703125 -16.660156 29.703125 -12.421875 C 29.703125 -8.191406 28.453125 -4.96875 25.953125 -2.75 C 23.460938 -0.539062 20.035156 0.5625 15.671875 0.5625 C 11.316406 0.5625 7.894531 -0.535156 5.40625 -2.734375 C 2.925781 -4.929688 1.6875 -8.160156 1.6875 -12.421875 C 1.6875 -16.691406 2.925781 -19.925781 5.40625 -22.125 C 7.894531 -24.320312 11.316406 -25.421875 15.671875 -25.421875 Z M 15.671875 -19.0625 C 12.597656 -19.0625 11.0625 -17.289062 11.0625 -13.75 L 11.0625 -11.0625 C 11.0625 -7.550781 12.597656 -5.796875 15.671875 -5.796875 C 18.785156 -5.796875 20.34375 -7.550781 20.34375 -11.0625 L 20.34375 -13.75 C 20.34375 -17.289062 18.785156 -19.0625 15.671875 -19.0625 Z M 15.671875 -19.0625 "/></g></g></g><g fill="#ff2996" fill-opacity="1"><g transform="translate(243.290359, 208.345371)"><g><path d="M 14.640625 -25.421875 C 17.960938 -25.421875 20.773438 -24.769531 23.078125 -23.46875 C 25.390625 -22.164062 26.546875 -20.148438 26.546875 -17.421875 L 17.84375 -17.421875 C 17.84375 -18.328125 17.4375 -18.96875 16.625 -19.34375 C 16.050781 -19.65625 15.34375 -19.8125 14.5 -19.8125 C 12.238281 -19.8125 11.109375 -19.28125 11.109375 -18.21875 C 11.109375 -17.625 11.5 -17.203125 12.28125 -16.953125 C 13.070312 -16.703125 14.359375 -16.429688 16.140625 -16.140625 C 18.335938 -15.828125 20.175781 -15.457031 21.65625 -15.03125 C 23.132812 -14.613281 24.421875 -13.863281 25.515625 -12.78125 C 26.617188 -11.695312 27.171875 -10.179688 27.171875 -8.234375 C 27.171875 -5.066406 25.984375 -2.804688 23.609375 -1.453125 C 21.242188 -0.109375 18.144531 0.5625 14.3125 0.5625 C 12.113281 0.5625 10.039062 0.257812 8.09375 -0.34375 C 6.144531 -0.957031 4.554688 -1.90625 3.328125 -3.1875 C 2.109375 -4.476562 1.5 -6.113281 1.5 -8.09375 L 10.21875 -8.09375 L 10.21875 -7.90625 C 10.25 -6.84375 10.695312 -6.097656 11.5625 -5.671875 C 12.425781 -5.242188 13.34375 -5.03125 14.3125 -5.03125 C 16.914062 -5.03125 18.21875 -5.644531 18.21875 -6.875 C 18.21875 -7.5 17.804688 -7.953125 16.984375 -8.234375 C 16.171875 -8.515625 14.84375 -8.816406 13 -9.140625 C 10.769531 -9.515625 8.9375 -9.921875 7.5 -10.359375 C 6.070312 -10.796875 4.828125 -11.539062 3.765625 -12.59375 C 2.703125 -13.644531 2.171875 -15.113281 2.171875 -17 C 2.171875 -20.039062 3.320312 -22.203125 5.625 -23.484375 C 7.9375 -24.773438 10.941406 -25.421875 14.640625 -25.421875 Z M 14.640625 -25.421875 "/></g></g></g><g fill="#ff2996" fill-opacity="1"><g transform="translate(272.05269, 208.345371)"><g><path d="M 14.640625 -25.421875 C 17.960938 -25.421875 20.773438 -24.769531 23.078125 -23.46875 C 25.390625 -22.164062 26.546875 -20.148438 26.546875 -17.421875 L 17.84375 -17.421875 C 17.84375 -18.328125 17.4375 -18.96875 16.625 -19.34375 C 16.050781 -19.65625 15.34375 -19.8125 14.5 -19.8125 C 12.238281 -19.8125 11.109375 -19.28125 11.109375 -18.21875 C 11.109375 -17.625 11.5 -17.203125 12.28125 -16.953125 C 13.070312 -16.703125 14.359375 -16.429688 16.140625 -16.140625 C 18.335938 -15.828125 20.175781 -15.457031 21.65625 -15.03125 C 23.132812 -14.613281 24.421875 -13.863281 25.515625 -12.78125 C 26.617188 -11.695312 27.171875 -10.179688 27.171875 -8.234375 C 27.171875 -5.066406 25.984375 -2.804688 23.609375 -1.453125 C 21.242188 -0.109375 18.144531 0.5625 14.3125 0.5625 C 12.113281 0.5625 10.039062 0.257812 8.09375 -0.34375 C 6.144531 -0.957031 4.554688 -1.90625 3.328125 -3.1875 C 2.109375 -4.476562 1.5 -6.113281 1.5 -8.09375 L 10.21875 -8.09375 L 10.21875 -7.90625 C 10.25 -6.84375 10.695312 -6.097656 11.5625 -5.671875 C 12.425781 -5.242188 13.34375 -5.03125 14.3125 -5.03125 C 16.914062 -5.03125 18.21875 -5.644531 18.21875 -6.875 C 18.21875 -7.5 17.804688 -7.953125 16.984375 -8.234375 C 16.171875 -8.515625 14.84375 -8.816406 13 -9.140625 C 10.769531 -9.515625 8.9375 -9.921875 7.5 -10.359375 C 6.070312 -10.796875 4.828125 -11.539062 3.765625 -12.59375 C 2.703125 -13.644531 2.171875 -15.113281 2.171875 -17 C 2.171875 -20.039062 3.320312 -22.203125 5.625 -23.484375 C 7.9375 -24.773438 10.941406 -25.421875 14.640625 -25.421875 Z M 14.640625 -25.421875 "/></g></g></g><g fill="#ff2996" fill-opacity="1"><g transform="translate(300.815021, 208.345371)"><g><path d="M 15.109375 -25.421875 C 18.910156 -25.421875 22.003906 -24.785156 24.390625 -23.515625 C 26.773438 -22.242188 27.96875 -20.179688 27.96875 -17.328125 L 27.96875 -7.625 C 27.96875 -7.09375 28.09375 -6.65625 28.34375 -6.3125 C 28.59375 -5.96875 28.96875 -5.796875 29.46875 -5.796875 L 31.171875 -5.796875 L 31.171875 -0.375 C 31.078125 -0.3125 30.832031 -0.207031 30.4375 -0.0625 C 30.039062 0.0703125 29.484375 0.207031 28.765625 0.34375 C 28.046875 0.488281 27.210938 0.5625 26.265625 0.5625 C 24.453125 0.5625 22.957031 0.289062 21.78125 -0.25 C 20.601562 -0.800781 19.789062 -1.566406 19.34375 -2.546875 C 18.15625 -1.597656 16.820312 -0.84375 15.34375 -0.28125 C 13.875 0.28125 12.148438 0.5625 10.171875 0.5625 C 4.328125 0.5625 1.40625 -1.757812 1.40625 -6.40625 C 1.40625 -8.820312 2.054688 -10.664062 3.359375 -11.9375 C 4.660156 -13.207031 6.535156 -14.078125 8.984375 -14.546875 C 11.429688 -15.015625 14.632812 -15.25 18.59375 -15.25 L 18.59375 -16.484375 C 18.59375 -17.453125 18.253906 -18.1875 17.578125 -18.6875 C 16.910156 -19.1875 16.039062 -19.4375 14.96875 -19.4375 C 14 -19.4375 13.160156 -19.265625 12.453125 -18.921875 C 11.742188 -18.578125 11.390625 -18.03125 11.390625 -17.28125 L 11.390625 -17.09375 L 2.171875 -17.09375 C 2.140625 -17.25 2.125 -17.46875 2.125 -17.75 C 2.125 -20.101562 3.242188 -21.96875 5.484375 -23.34375 C 7.722656 -24.726562 10.929688 -25.421875 15.109375 -25.421875 Z M 18.59375 -10.828125 C 15.925781 -10.828125 13.957031 -10.535156 12.6875 -9.953125 C 11.414062 -9.378906 10.78125 -8.601562 10.78125 -7.625 C 10.78125 -6.050781 11.847656 -5.265625 13.984375 -5.265625 C 15.203125 -5.265625 16.273438 -5.59375 17.203125 -6.25 C 18.128906 -6.914062 18.59375 -7.734375 18.59375 -8.703125 Z M 18.59375 -10.828125 "/></g></g></g><g fill="#000000" fill-opacity="1"><g transform="translate(187.566914, 239.00625)"><g><path d="M 4.6875 0.1875 C 3.863281 0.1875 3.0625 0.0703125 2.28125 -0.15625 C 1.507812 -0.382812 0.890625 -0.675781 0.421875 -1.03125 L 1.25 -2.859375 C 1.695312 -2.535156 2.226562 -2.269531 2.84375 -2.0625 C 3.46875 -1.863281 4.085938 -1.765625 4.703125 -1.765625 C 5.398438 -1.765625 5.910156 -1.867188 6.234375 -2.078125 C 6.566406 -2.285156 6.734375 -2.554688 6.734375 -2.890625 C 6.734375 -3.140625 6.632812 -3.347656 6.4375 -3.515625 C 6.25 -3.679688 6 -3.8125 5.6875 -3.90625 C 5.382812 -4.007812 4.972656 -4.125 4.453125 -4.25 C 3.648438 -4.4375 2.992188 -4.625 2.484375 -4.8125 C 1.972656 -5 1.535156 -5.300781 1.171875 -5.71875 C 0.804688 -6.144531 0.625 -6.707031 0.625 -7.40625 C 0.625 -8.019531 0.789062 -8.570312 1.125 -9.0625 C 1.457031 -9.5625 1.953125 -9.957031 2.609375 -10.25 C 3.273438 -10.539062 4.09375 -10.6875 5.0625 -10.6875 C 5.726562 -10.6875 6.378906 -10.601562 7.015625 -10.4375 C 7.660156 -10.28125 8.222656 -10.050781 8.703125 -9.75 L 7.953125 -7.90625 C 6.984375 -8.457031 6.015625 -8.734375 5.046875 -8.734375 C 4.359375 -8.734375 3.851562 -8.617188 3.53125 -8.390625 C 3.207031 -8.171875 3.046875 -7.882812 3.046875 -7.53125 C 3.046875 -7.164062 3.234375 -6.894531 3.609375 -6.71875 C 3.984375 -6.550781 4.554688 -6.378906 5.328125 -6.203125 C 6.128906 -6.015625 6.785156 -5.828125 7.296875 -5.640625 C 7.804688 -5.453125 8.242188 -5.148438 8.609375 -4.734375 C 8.972656 -4.328125 9.15625 -3.773438 9.15625 -3.078125 C 9.15625 -2.472656 8.984375 -1.921875 8.640625 -1.421875 C 8.304688 -0.929688 7.804688 -0.539062 7.140625 -0.25 C 6.472656 0.0390625 5.65625 0.1875 4.6875 0.1875 Z M 4.6875 0.1875 "/></g></g></g><g fill="#000000" fill-opacity="1"><g transform="translate(201.63691, 239.00625)"><g><path d="M 10.875 -10.5 L 10.875 0 L 8.4375 0 L 8.4375 -4.3125 L 3.671875 -4.3125 L 3.671875 0 L 1.25 0 L 1.25 -10.5 L 3.671875 -10.5 L 3.671875 -6.359375 L 8.4375 -6.359375 L 8.4375 -10.5 Z M 10.875 -10.5 "/></g></g></g><g fill="#000000" fill-opacity="1"><g transform="translate(218.256899, 239.00625)"><g><path d="M 6.328125 0.1875 C 5.234375 0.1875 4.25 -0.046875 3.375 -0.515625 C 2.5 -0.992188 1.8125 -1.644531 1.3125 -2.46875 C 0.820312 -3.289062 0.578125 -4.21875 0.578125 -5.25 C 0.578125 -6.28125 0.820312 -7.207031 1.3125 -8.03125 C 1.8125 -8.851562 2.5 -9.5 3.375 -9.96875 C 4.25 -10.445312 5.234375 -10.6875 6.328125 -10.6875 C 7.421875 -10.6875 8.398438 -10.445312 9.265625 -9.96875 C 10.140625 -9.5 10.828125 -8.851562 11.328125 -8.03125 C 11.828125 -7.207031 12.078125 -6.28125 12.078125 -5.25 C 12.078125 -4.21875 11.828125 -3.289062 11.328125 -2.46875 C 10.828125 -1.644531 10.140625 -0.992188 9.265625 -0.515625 C 8.398438 -0.046875 7.421875 0.1875 6.328125 0.1875 Z M 6.328125 -1.890625 C 6.953125 -1.890625 7.515625 -2.03125 8.015625 -2.3125 C 8.515625 -2.601562 8.90625 -3.003906 9.1875 -3.515625 C 9.46875 -4.023438 9.609375 -4.601562 9.609375 -5.25 C 9.609375 -5.894531 9.46875 -6.472656 9.1875 -6.984375 C 8.90625 -7.492188 8.515625 -7.890625 8.015625 -8.171875 C 7.515625 -8.460938 6.953125 -8.609375 6.328125 -8.609375 C 5.710938 -8.609375 5.15625 -8.460938 4.65625 -8.171875 C 4.15625 -7.890625 3.757812 -7.492188 3.46875 -6.984375 C 3.1875 -6.472656 3.046875 -5.894531 3.046875 -5.25 C 3.046875 -4.601562 3.1875 -4.023438 3.46875 -3.515625 C 3.757812 -3.003906 4.15625 -2.601562 4.65625 -2.3125 C 5.15625 -2.03125 5.710938 -1.890625 6.328125 -1.890625 Z M 6.328125 -1.890625 "/></g></g></g><g fill="#000000" fill-opacity="1"><g transform="translate(235.416891, 239.00625)"><g><path d="M 5.796875 -10.5 C 6.722656 -10.5 7.523438 -10.34375 8.203125 -10.03125 C 8.890625 -9.71875 9.414062 -9.273438 9.78125 -8.703125 C 10.15625 -8.140625 10.34375 -7.46875 10.34375 -6.6875 C 10.34375 -5.914062 10.15625 -5.242188 9.78125 -4.671875 C 9.414062 -4.097656 8.890625 -3.65625 8.203125 -3.34375 C 7.523438 -3.039062 6.722656 -2.890625 5.796875 -2.890625 L 3.671875 -2.890625 L 3.671875 0 L 1.25 0 L 1.25 -10.5 Z M 5.65625 -4.875 C 6.382812 -4.875 6.9375 -5.03125 7.3125 -5.34375 C 7.695312 -5.65625 7.890625 -6.101562 7.890625 -6.6875 C 7.890625 -7.28125 7.695312 -7.734375 7.3125 -8.046875 C 6.9375 -8.359375 6.382812 -8.515625 5.65625 -8.515625 L 3.671875 -8.515625 L 3.671875 -4.875 Z M 5.65625 -4.875 "/></g></g></g></svg>